<svg id="Layer_1" xmlns="http://www.w3.org/2000/svg" viewBox="0 0 199 126.6"><path fill="#FFF" d="M25.7 33.2c0 3-1.4 4.7-5 4.7h-3.1v-9.3c.4 0 1.7-.1 2.1-.1h1.1c3.7.1 4.9 1.7 4.9 4.7zm7.4 12.1c0-4.8-3.9-6.5-8.6-6.6v-.2c4-.3 7.3-2 7.3-6.1 0-4.5-3.7-5.4-7.9-5.4-5 0-10.9.1-15.9 0v1.6c1.1-.1 3.6.1 3.6 1.4v19.3c0 1.3-2.6 1.5-3.6 1.5v1.5c4.8-.1 10.6 0 15.5 0 5.1-.1 9.6-1.8 9.6-7zm-6.4-.5c0 4-1.4 5.8-6.2 5.8h-3v-11h3.2c4.4 0 6 1.4 6 5.2zm38.9 7.4h-6.7v-1.5c1 0 3.9-.1 3.9-1.4V31.4h-.1L52.4 52.6h-1.2l-9.9-21.2h-.1v17.9c0 1.4 2.8 1.4 3.9 1.4v1.5c-2.8-.1-6.6-.2-9.4 0v-1.5c1.1 0 3.5-.1 3.5-1.4V30c0-1.3-2.5-1.4-3.5-1.4V27c3.2.1 6.6.1 9.8 0L54 44.9l8.7-17.8c3.1.1 6.6.1 9.6 0v1.6c-1 0-3.7.1-3.7 1.4v19.2c0 1.4 2.6 1.4 3.7 1.4v1.5h-6.7zM96 39.6c0 4.8-.5 11.5-7.6 11.5s-7.7-6.7-7.7-11.5.5-11.5 7.7-11.5c7.1.1 7.6 6.8 7.6 11.5zm6.7 0c0-8.3-5.1-13-14.3-13s-14.3 4.6-14.3 13 5.1 13 14.3 13c9.2.1 14.3-4.6 14.3-13zm92-28.3c-2.4 0-4.3 1.9-4.3 4.3s1.9 4.3 4.3 4.3 4.3-1.9 4.3-4.3-1.9-4.3-4.3-4.3zm0 8.1c-2 0-3.7-1.7-3.7-3.7 0-2.1 1.6-3.7 3.7-3.7 2 0 3.7 1.7 3.7 3.7-.1 2-1.7 3.7-3.7 3.7"/><path fill="#FFF" d="M196.7 14.6c0-1-.6-1.4-1.6-1.4h-1.9v5h.6V16h1l1.4 2.2h.7l-1.5-2.2c.8-.2 1.3-.8 1.3-1.4zm-3 .8v-1.7h1c.9 0 1.3.3 1.3.9 0 .6-.4.9-1.3.9l-1-.1"/><path fill="#E2231A" d="M154.6 0c-20.1 0-36.4 16.3-36.4 36.4s16.3 36.4 36.4 36.4S191 56.5 191 36.4 174.7 0 154.6 0z"/><path fill="#FFF" d="M191 91.5H8V90h183v1.5zm-37.5-66.2l-6.3-8.2c-.3-.3-.7-.6-1.1-.6-.4 0-.8.2-1.1.5l-7.5 9.5v14.9l7.5-9.6c.3-.3.7-.6 1.1-.6.5 0 .9.2 1.2.6l6.4 8.3c.2.3.6.5 1.1.5.4 0 .8-.2 1.1-.5l6.4-8.3c.3-.3.7-.6 1.2-.6s.9.2 1.1.6l7.5 9.6V26.5l-7.5-9.5c-.3-.3-.7-.5-1.1-.5-.5 0-.9.2-1.1.6l-6.3 8.2c-.3.3-.7.5-1.1.5s-1.3-.2-1.5-.5zm18.3 27h-34.4V41.4h34.4v10.9zm-104.2 74h-3.3.1-.1v-17.6h3.3v17.6zm-54.4.3c-2 0-3.9-.4-5.2-1v-16.2c1.4-.6 3.1-1 5-1 4.2 0 6.4 1.9 6.4 4.6 0 2.1-1.4 3.5-3.3 4v.1c2.1.5 3.8 2.2 3.8 4.5.1 3.4-2.6 5-6.7 5zm-.2-16.3c-.7 0-1.4.1-1.9.3v5.7h1.1c2.9 0 4.1-1.1 4.1-3.1 0-1.9-1-2.9-3.3-2.9zm-.8 7.6h-1.1v6.4c.5.2 1.2.3 2 .3 2.1 0 3.6-.9 3.6-3.2 0-2.4-1.4-3.5-4.5-3.5zm24.4 8.4l-1.1-11.7c-.1-.7-.1-1.4-.1-2.1-.1.6-.3 1.4-.5 2.1l-3.4 11.7h-1.8l-3.3-11.7c-.2-.7-.4-1.4-.5-2.1 0 .7-.1 1.6-.1 2.1l-1.1 11.7h-2.8l2-17.6h3.3l3.2 11.3c.2.7.3 1.3.5 2.2h.1c.2-.9.3-1.5.5-2.2l3.2-11.3H38l2 17.6h-3.4zm11.4.3c-4.6 0-6.6-3.9-6.6-9.1s2.1-9.1 6.6-9.1c4.6 0 6.6 3.9 6.6 9.1s-2.1 9.1-6.6 9.1zm0-16c-2.6 0-3.4 3-3.4 6.8s.8 6.8 3.4 6.8c2.6 0 3.4-3.1 3.4-6.8-.1-3.7-.9-6.8-3.4-6.8zm30.3 15.7v-9.5c0-1.8-.7-2.7-2.6-2.7-.8 0-1.4.1-2 .4v11.8h-3.1v-13.1c1.4-.6 3.2-1 5.2-1 4 0 5.8 1.7 5.8 4.6v9.4l-3.3.1zm11.8 0h-2.9l-4.6-13.8H86l2.4 9c.2.6.3 1.2.3 2h.1c.1-.7.2-1.4.4-2l2.6-9h3l-4.7 13.8zm8.2-5.7c.2 2.4 1.6 3.8 3.9 3.8 1.3 0 2.6-.4 3.4-.8l.7 2c-1.1.6-2.8 1-4.6 1-4.2 0-6.5-2.9-6.5-7.2 0-4.3 2.2-7.2 6-7.2 3.6 0 5.6 2.4 5.6 6.7v.4l-8.5 1.3zm2.8-6.5c-2 0-3 1.9-3 4.6v.3l5.7-.9c0-2.5-.8-4-2.7-4zm11.4 12.5c-1.5 0-3.1-.4-4-1l.9-1.9c.9.5 1.9.8 2.8.8 1.4 0 2.3-.8 2.3-2 0-2.9-5.6-1.8-5.6-6.3 0-2.4 1.9-4 4.5-4 1.5 0 2.8.3 3.9 1l-.8 1.8c-.7-.5-1.6-.8-2.5-.8-1.4 0-2.1.8-2.1 1.8 0 2.7 5.7 1.7 5.7 6.3 0 2.4-2 4.3-5.1 4.3zm11.8-.1c-2.3 0-3.7-1.4-3.7-3.8v-8.2h-1.5v-2h1.5v-3.1l3.1-.9v3.9h2.3v2h-2.3v8.2c0 1.1.5 1.7 1.5 1.7.3 0 .5-.1.8-.1v2c-.4.2-1 .3-1.7.3zm8.8.1c-3.9 0-5.8-3-5.8-7.2s1.9-7.2 5.8-7.2 5.8 3 5.8 7.2c.1 4.2-1.9 7.2-5.8 7.2zm0-12.4c-2 0-2.7 2.3-2.7 5.2 0 2.9.7 5.2 2.7 5.2s2.7-2.3 2.7-5.2c0-2.9-.6-5.2-2.7-5.2zm14.1.4c-.4-.2-.9-.3-1.4-.3-.6 0-1.1.1-1.5.3v11.8h-3.1v-13.1c1.2-.6 2.9-1 5.2-1 .6 0 1.2.1 1.5.1l-.7 2.2zm2.5 11.7v-17.6h3.3v15.5h4.9v2.2l-8.2-.1zm12-16.2c-.9 0-1.7-.7-1.7-1.6s.8-1.6 1.7-1.6c1 0 1.7.7 1.7 1.6.1.9-.7 1.6-1.7 1.6zm-1.5 16.2v-13.8h3.1v13.8h-3.1zm13.8 0v-9.5c0-1.8-.7-2.7-2.6-2.7-.8 0-1.4.1-2 .4v11.8h-3.1v-13.1c1.4-.6 3.2-1 5.2-1 4 0 5.8 1.7 5.8 4.6v9.4l-3.3.1zm8.5-5.7c.2 2.4 1.6 3.8 3.9 3.8 1.3 0 2.6-.4 3.4-.8l.7 2c-1.1.6-2.8 1-4.6 1-4.2 0-6.5-2.9-6.5-7.2 0-4.3 2.2-7.2 5.9-7.2 3.6 0 5.6 2.4 5.6 6.7v.4l-8.4 1.3zm2.8-6.5c-2 0-3 1.9-3 4.6v.3l5.7-.9c0-2.5-.8-4-2.7-4z"/></svg>
